<?xml version="1.0" encoding="utf-8"?>
<!-- Generator: Adobe Illustrator 16.0.0, SVG Export Plug-In . SVG Version: 6.00 Build 0)  -->
<!DOCTYPE svg PUBLIC "-//W3C//DTD SVG 1.1//EN" "http://www.w3.org/Graphics/SVG/1.1/DTD/svg11.dtd">
<svg version="1.1" id="Layer_1" xmlns="http://www.w3.org/2000/svg" xmlns:xlink="http://www.w3.org/1999/xlink" x="0px" y="0px"
	 width="400px" height="156px" viewBox="0 0 400 156" enable-background="new 0 0 400 156" xml:space="preserve">
<g>
	<g>
		<path fill="#1D1D1B" d="M41.009,79.427c-3.622,0.284-5.165,0.914-5.323,3.308c-0.189,1.7-0.315,4.347-0.315,10.173v4.158
			c0,7.308-1.166,12.473-4.599,16.033c-2.803,2.929-6.898,4.157-10.772,4.157c-3.338,0-6.709-0.819-9.417-2.867
			c-3.433-2.739-5.26-7.212-5.26-14.332V85.19c0-5.07-0.473-5.323-5.323-5.764V77.6h15.213v1.827c-4.787,0.346-5.26,0.63-5.26,5.764
			v13.513c0,10.426,4.378,15.213,11.402,15.213c8.346,0,11.402-6.739,11.402-17.197v-3.904c0-5.733-0.189-8.315-0.41-10.175
			c-0.346-2.299-1.638-2.867-5.953-3.213V77.6h14.615V79.427z"/>
		<path fill="#1D1D1B" d="M85.452,79.427c-3.37,0.158-4.977,0.914-5.323,3.37c-0.095,1.827-0.22,4.505-0.22,10.237v23.813h-1.89
			L52.947,85.664h-0.125v14.866c0,5.387,0.188,8.283,0.251,10.048c0.41,3.056,1.858,3.685,5.827,3.937v1.858H44.537v-1.858
			c3.433-0.126,4.945-0.881,5.323-3.811c0.157-1.891,0.41-4.787,0.41-10.174V87.428c0-4.378-0.126-4.378-1.197-5.859
			c-1.229-1.448-2.615-1.857-5.481-2.142V77.6h8.599l24.915,30.396h0.157V93.034c0-5.732-0.157-8.41-0.347-9.984
			c-0.409-2.709-1.858-3.465-5.953-3.623V77.6h14.489V79.427z"/>
		<path fill="#1D1D1B" d="M89.263,116.373v-1.858c4.977-0.315,5.512-0.599,5.512-5.701V85.097c0-5.04-0.535-5.26-5.512-5.67V77.6
			h15.497v1.827c-4.914,0.41-5.48,0.63-5.48,5.67v23.717c0,5.166,0.566,5.386,5.48,5.701v1.858H89.263z"/>
		<path fill="#1D1D1B" d="M144.699,106.42c-0.788,2.931-2.362,7.37-3.339,9.261c-1.764,0.409-6.614,1.637-11.119,1.637
			c-14.458,0-20.946-10.362-20.946-19.716c0-12.632,9.701-20.947,22.804-20.947c4.819,0,8.788,1.292,10.488,1.638
			c0.41,3.464,0.819,5.857,1.166,9.009l-1.921,0.535c-1.48-6.08-4.693-8.882-11.465-8.882c-10.079,0-15.434,8.347-15.434,17.354
			c0,11.183,6.772,18.71,15.78,18.71c6.016,0,9.008-3.023,12.095-9.229L144.699,106.42z"/>
		<path fill="#1D1D1B" d="M171.944,116.373v-1.858c4.032-0.472,4.504-0.881,3.748-3.181l-3.276-9.009h-13.103
			c-0.882,2.426-1.638,4.852-2.52,7.308c-1.354,4.001-0.756,4.473,3.748,4.882v1.858h-13.166v-1.858
			c3.842-0.535,4.662-0.818,6.771-6.204l12.221-31.057l1.827-0.599c3.623,9.954,7.843,21.891,11.56,32.001
			c1.701,4.978,2.583,5.481,6.52,5.858v1.858H171.944z M166.148,83.963h-0.126c-1.921,5.26-3.812,10.552-5.67,15.623h11.182
			L166.148,83.963z"/>
		<path fill="#1D1D1B" d="M204.92,77.6c4.098,0,7.559,0.693,10.02,2.521c2.171,1.701,3.746,4.379,3.746,8.283
			c0,7.749-5.796,11.592-11.527,12.283c-0.945,0.127-2.112,0.127-2.803,0.064l-4.505-1.229v9.292c0,5.103,0.567,5.324,6.144,5.701
			v1.858h-16.097v-1.858c4.914-0.377,5.448-0.818,5.448-5.701V85.129c0-5.262-0.597-5.418-5.1-5.702V77.6H204.92z M199.85,97.412
			c0.819,0.315,2.52,0.819,4.599,0.819c4.221,0,8.912-2.143,8.912-9.449c0-6.331-4.092-9.197-9.323-9.197
			c-1.731,0-3.15,0.347-3.495,0.756c-0.537,0.472-0.693,1.165-0.693,2.865V97.412z"/>
	</g>
	<g>
		<path fill="#1D1D1B" d="M301.225,108.78c0.79-0.847,6.424-14.312,6.874-15.044c0.396-0.788,6.536-14.03,6.705-15.159
			c0.112-0.619,0.733-0.676,1.298-0.676c7.493,0,9.409-0.169,10.027-0.169c0.283,0,0.339,0.169,0.339,0.395v1.295
			c0,0.338-0.056,0.507-0.45,0.507h-2.479c-1.691,0-1.86,1.017-1.86,2.312c0,1.635-0.168,9.692-0.168,13.467v3.944
			c0,2.817,0.168,11.945,0.168,13.073c0,2.141,0.508,3.042,1.917,3.042h3.324c0.339,0,0.394,0.169,0.394,0.396v1.295
			c0,0.337-0.055,0.507-0.507,0.507c-0.677,0-1.69-0.17-7.889-0.17c-5.184,0-7.381,0.17-8.114,0.17c-0.394,0-0.45-0.17-0.45-0.507
			v-1.295c0-0.283,0.057-0.396,0.45-0.396h3.832c0.959,0,1.467-0.337,1.579-2.028c0.057-0.676,0.11-10.479,0.11-14.65v-3.606
			c0-3.718,0-13.748-0.168-14.255h-0.112c-0.564,0.732-8.565,18.479-8.848,19.044c-0.338,0.677-6.591,15.043-6.817,15.552
			s-0.676,1.354-1.125,1.354c-0.34,0-0.622-0.452-0.846-1.014l-7.664-18.879c-1.07-2.589-6.199-15.212-6.986-15.889
			c-0.227,0.789-0.339,15.044-0.339,15.721c0,0.676-0.056,12.565,0.112,14.538c0.283,3.212,0.791,4.113,2.592,4.113h2.818
			c0.339,0,0.393,0.169,0.393,0.396v1.406c0,0.226-0.054,0.396-0.507,0.396c-0.618,0-2.14-0.17-6.817-0.17
			c-4.789,0-6.762,0.17-7.27,0.17c-0.449,0-0.506-0.057-0.506-0.507v-1.353c0-0.169,0.057-0.338,0.338-0.338h2.986
			c2.143,0,2.65-1.465,2.987-3.38c0.677-4.001,0.845-18.426,0.845-19.439c0-0.791,0-9.298-0.057-10.934
			c-0.057-1.295,0-2.085-2.311-2.085h-3.436c-0.34,0-0.395-0.169-0.395-0.394V78.07c0-0.168,0.055-0.338,0.395-0.338
			c0.563,0,2.084,0.169,6.872,0.169c2.649,0,4.116-0.169,4.792-0.169c0.845,0,1.182,0.227,1.465,0.959L301.225,108.78z"/>
		<path fill="#1D1D1B" d="M349.683,115.314c0.901,0,1.69-0.448,1.971-0.844c0.227-0.281,0.339-0.393,0.564-0.224l0.563,0.449
			c0.17,0.17,0.281,0.45-0.057,1.014c-0.449,0.846-1.521,2.763-4.395,2.763c-2.028,0-3.493-1.465-4.001-3.776h-0.112
			c-1.183,1.409-3.044,2.593-5.579,3.438c-1.071,0.339-2.085,0.339-3.322,0.339c-1.354,0-3.383-1.126-3.383-4.679
			c0-2.592,1.184-4.843,5.634-6.817c2.537-1.126,5.468-2.479,6.367-3.269v-3.605c-0.111-0.957-0.168-2.423-0.787-3.155
			c-0.619-0.73-1.747-1.239-3.381-1.239c-1.128,0-2.875,0.451-3.662,1.184c-0.788,0.73-0.282,1.578-0.282,2.592
			c0,1.972-0.675,3.212-2.986,3.212c-0.902,0-1.353-0.508-1.353-1.805c0-1.802,1.579-3.943,3.888-5.296
			c2.365-1.41,4.34-1.972,6.874-1.972c2.649,0,3.721,0.788,4.509,1.521c1.183,1.184,1.24,2.479,1.24,4.002v11.945
			C347.993,114.303,348.669,115.314,349.683,115.314z M343.88,105.399c-2.029,1.521-7.551,2.648-7.551,7.326
			c0,2.083,1.237,3.098,2.93,3.098c1.633,0,4.621-1.972,4.621-3.493V105.399z"/>
		<path fill="#1D1D1B" d="M358.135,101.85c0-1.353-0.395-2.143-2.028-3.042l-1.297-0.732c-0.395-0.169-0.395-0.338-0.395-0.508
			v-0.451c0-0.169,0.114-0.281,0.395-0.394l5.41-2.707c0.45-0.223,0.9-0.449,1.296-0.449c0.281,0,0.395,0.281,0.395,1.129
			l0.227,2.703h0.168c1.521-1.973,4.451-3.775,8.228-3.775c2.873,0,4.788,1.241,6.422,2.762c2.143,2.14,3.042,4.451,3.042,8.79
			c0,7.382-5.128,13.298-12.171,13.298c-1.521,0-3.887-0.227-5.635-0.957v11.886c0,1.579,0.396,1.862,1.24,1.862h2.48
			c0.451,0,0.508,0.223,0.508,0.562v0.959c0,0.339-0.114,0.508-0.508,0.508c-0.283,0-2.199-0.169-5.806-0.169
			c-3.268,0-5.239,0.169-5.69,0.169c-0.394,0-0.507-0.169-0.507-0.508v-1.014c0-0.284,0.113-0.507,0.675-0.507h2.199
			c0.958,0,1.069-0.564,1.184-1.409c0.169-1.24,0.169-4.282,0.169-9.805V101.85z M362.19,112.162c0,1.239,0.114,2.253,1.184,2.984
			c1.578,1.128,3.325,1.522,5.635,1.522c3.213,0,6.536-2.422,6.536-9.41c0-7.89-3.55-11.042-7.324-11.042
			c-2.366,0-4.678,1.351-6.03,3.605V112.162z"/>
		<path fill="#1D1D1B" d="M385.744,116.838c-0.282-0.169-0.282-0.506-0.338-0.789l-0.958-5.354c-0.056-0.281,0.112-0.393,0.337-0.45
			l0.733-0.168c0.226-0.059,0.395,0.056,0.507,0.337l1.409,2.762c1.126,2.086,1.916,3.493,4.901,3.493
			c1.973,0,4.451-1.185,4.451-3.832c0-2.534-1.238-4-5.466-5.184c-3.323-0.957-6.648-2.704-6.648-7.156
			c0-3.888,3.664-6.874,7.889-6.874c2.704,0,4.17,0.677,5.185,1.184c0.845,0.395,0.957,0.676,1.014,1.015l0.845,3.943
			c0,0.227-0.112,0.396-0.395,0.507l-0.676,0.226c-0.227,0.056-0.338,0-0.507-0.281l-1.916-2.594
			c-0.677-1.068-1.748-2.196-3.945-2.196c-2.14,0-4.337,1.297-4.337,3.72c0,3.269,2.647,3.888,5.408,4.676
			c4.113,1.183,6.706,2.875,6.763,7.213c-0.057,4.564-3.774,7.438-8.564,7.438C388.675,118.473,386.421,117.347,385.744,116.838z"/>
	</g>
	<linearGradient id="SVGID_1_" gradientUnits="userSpaceOnUse" x1="246.958" y1="117.9961" x2="246.958" y2="156.2598">
		<stop  offset="0" style="stop-color:#FFFFFF;stop-opacity:0"/>
		<stop  offset="1" style="stop-color:#1D1D1B"/>
	</linearGradient>
	<path fill="none" stroke="url(#SVGID_1_)" stroke-miterlimit="10" d="M261.318,118.473c10.43,3.312,17.559,10.055,17.502,17.784
		c-0.078,10.897-14.407,19.629-32.004,19.502c-17.598-0.127-31.799-9.063-31.721-19.96c0.055-7.549,6.946-14.058,17.025-17.304"/>
	<g>
		<polygon fill="#2D2E82" points="246.83,91.979 246.83,134.904 276.532,48.901 		"/>
		<polygon fill="#1D70B7" points="246.83,91.979 246.83,134.904 217.256,49.207 		"/>
		<path fill="#517BBD" d="M276.532,45.74c0,0,2.933-6.754,2.933-13.243c0-18.025-14.992-32.464-33.016-32.255
			c-18.023,0.21-32.256,14.99-32.256,33.015c0,6.29,3.063,12.789,3.063,12.789l29.574,42.773L276.532,45.74z"/>
		<g>
			<path fill="#FFFFFF" d="M245.953,46.648c0.713,0.111,1.375,0.42,2.121,0.428c2.068,0.02,3.576-1.452,3.623-3.649
				c-1.639,0.582-3.271,1.18-5.028,0.595c0.534-0.425,1.161-0.068,1.466-0.162c-0.307,0.07-0.928-0.255-1.461,0.164
				c-2.187-0.352-3.614-1.813-4.88-3.443c-1.081-1.393-2.054-2.867-3.484-3.947c-1.409-1.066-2.849-2.07-4.597-2.519
				c-0.135-0.035-0.246-0.162-0.444-0.297c4.416-1.118,8.485-0.692,12.198,1.995c2.336,1.69,4.321,3.741,6.192,5.975
				c0.103-1.178-0.452-2.84-1.474-4.356c-1.775-2.637-4.254-4.525-6.816-6.313c-1.446-1.01-2.947-1.939-4.533-2.713
				c-4.318-2.11-6.964-5.686-8.754-9.99c-0.59-1.419-1.016-2.905-1.506-4.365c-0.086-0.26-0.102-0.537,0.053-0.922
				c2.998,3.612,7.315,4.375,11.451,5.51c3.797,1.042,7.431,2.398,10.434,5.063c3.752,3.327,5.866,7.558,6.879,12.564
				c0.619-0.807,1.131-1.577,1.761-2.25c2.353-2.508,4.66-2.353,6.606,0.457c0.266,0.382,0.607,0.712,0.988,1.152
				c-0.74,0.093-1.447,0.125-2.107,0.378c-1.15,0.44-1.717,1.265-1.374,2.436c1.869,6.394-4.4,12.921-11.739,11.347
				c-2.342-0.501-4.453-1.484-6.369-2.905C245.266,46.257,245.66,46.628,245.953,46.648z"/>
			<path fill="#FFFFFF" d="M245.953,46.648c-0.274,0.044-0.598-0.083-0.795,0.231c-0.497-0.252-0.975-0.529-1.33-0.973
				c0.078-0.086,0.166-0.097,0.264-0.034C244.742,46.061,245.383,46.27,245.953,46.648z"/>
			<path fill="#FFFFFF" d="M244.092,45.872c-0.088,0.011-0.176,0.022-0.264,0.034c-0.289-0.162-0.545-0.354-0.775-0.815
				C243.572,45.305,243.978,45.383,244.092,45.872z"/>
			<path fill="#FFFFFF" d="M246.674,44.023c0.056-0.372,0.323-0.409,0.622-0.393c0.637,0.034,1.285-0.086,1.919,0.182
				c-0.825,0.318-1.699,0.125-2.546,0.208L246.674,44.023z"/>
		</g>
	</g>
</g>
<g>
</g>
<g>
</g>
<g>
</g>
<g>
</g>
<g>
</g>
<g>
</g>
<g>
</g>
<g>
</g>
<g>
</g>
<g>
</g>
<g>
</g>
<g>
</g>
<g>
</g>
<g>
</g>
<g>
</g>
</svg>
